# xmcd CD database file
#
# Track frame offsets:
#	150
#	16398
#	33177
#	52053
#	70182
#	88005
#	104950
#	123500
#	143348
#	166571
#	187609
#
# Disc length: 2727 seconds
#
# Revision: 0
# Processed by: cddbd v1.5.2PL0 Copyright (c) Steve Scherf et al.
# Submitted via: CDex 1.51
#
DISCID=880aa50b
DTITLE=The Surgens - Misadventures of a broken man
DYEAR=2008
DGENRE=Blues
TTITLE0=Moon song
TTITLE1=Drunken lover blues
TTITLE2=Credit card girl
TTITLE3=Joe hill
TTITLE4=Nappy brown
TTITLE5=The fool
TTITLE6=I´m leaving me
TTITLE7=Miss T
TTITLE8=Tweedledum and Tweedledee
TTITLE9=Two mile driver
TTITLE10=Reefer madness
EXTD=YEAR: 2008
EXTT0=
EXTT1=
EXTT2=
EXTT3=
EXTT4=
EXTT5=
EXTT6=
EXTT7=
EXTT8=
EXTT9=
EXTT10=
PLAYORDER=
